<?xml version="1.0" standalone="no"?><!DOCTYPE svg PUBLIC "-//W3C//DTD SVG 1.1//EN" "http://www.w3.org/Graphics/SVG/1.1/DTD/svg11.dtd"><svg t="1606310213035" class="icon" viewBox="0 0 1024 1024" version="1.1" xmlns="http://www.w3.org/2000/svg" p-id="7542" xmlns:xlink="http://www.w3.org/1999/xlink" width="200" height="200"><defs><style type="text/css"></style></defs><path d="M262.945641 416.342956l-0.692093 238.969586L54.230376 535.185092l0.692092-238.969586 208.023173 120.12745z" fill="#CCE8FF" p-id="7543"></path><path d="M262.945641 416.342956l64.562325-37.570725-0.692093 239.068456-64.562325 37.471855 0.692093-238.969586z" fill="#005DE5" p-id="7544"></path><path d="M54.922468 296.215506l64.562325-37.471854 208.023173 120.028579-64.562325 37.570725L54.922468 296.215506z" fill="#57ABFF" p-id="7545"></path><path d="M574.881529 278.616588l-1.581925 560.199285L365.276431 718.787294l1.680796-560.199286 207.924302 120.02858z" fill="#FFDF5A" p-id="7546"></path><path d="M574.881529 278.616588l64.562325-37.471855-1.581925 560.199286-64.562325 37.471854 1.581925-560.199285z" fill="#FF7517" p-id="7547"></path><path d="M366.957227 158.588008l64.562325-37.570725 207.924302 120.12745-64.562325 37.471855-207.924302-120.02858z" fill="#FFB845" p-id="7548"></path><path d="M905.207299 157.599305l-2.471758 866.400695-208.023173-120.12745 2.471759-866.301825 208.023172 120.02858z" fill="#76C8FF" p-id="7549"></path><path d="M905.207299 157.599305l64.562325-37.471855-2.372887 866.400695-64.661196 37.471855 2.471758-866.400695z" fill="#005CE2" p-id="7550"></path><path d="M697.184127 37.570725L761.746452 0 969.769624 120.12745l-64.562325 37.471855L697.184127 37.570725z" fill="#2789FF" p-id="7551"></path></svg>